<svg width="241" height="28" viewBox="0 0 241 28" fill="none" xmlns="http://www.w3.org/2000/svg">
<path d="M0.382812 5.17H6.67282V22H10.5488V5.17H16.8388V1.6H0.382812V5.17Z" fill="#1E0500"/>
<path d="M19.9572 27.95C23.6292 27.95 25.6012 26.182 27.2332 22.204L33.8293 6.02H29.9193L28.1853 11.868C27.5733 13.84 26.7913 16.39 26.0773 18.77H25.5332C24.8532 16.458 23.9693 13.806 23.3233 11.8L21.4532 6.02H17.4413L23.8672 21.83C22.8132 24.244 21.8612 24.686 20.0592 24.686C19.3793 24.686 18.6993 24.584 18.0193 24.448L17.4413 27.746C18.1893 27.848 18.9032 27.95 19.9572 27.95Z" fill="#1E0500"/>
<path d="M43.4624 19.212C41.0144 19.212 39.3824 17.376 39.3824 14.69V13.466C39.3824 10.678 40.9804 8.91 43.4964 8.91C46.1824 8.91 47.4064 10.576 47.4064 14.044C47.4064 17.478 46.1484 19.212 43.4624 19.212ZM51.0104 14.044C51.0104 8.604 48.9024 5.612 45.1284 5.612C42.2384 5.612 40.4704 7.414 39.6204 10.168H39.3824V6.02H35.7444V27.168H39.3824V17.75H39.6204C40.4024 20.538 42.2724 22.442 45.1964 22.442C48.8004 22.442 51.0104 19.484 51.0104 14.044Z" fill="#1E0500"/>
<path d="M57.9525 3.3V0.341997H53.9745V3.3H57.9525ZM57.7825 22V6.02H54.1105V22H57.7825Z" fill="#1E0500"/>
<path d="M72.8581 12.242L76.2921 11.596C75.6461 7.788 73.5721 5.612 68.9821 5.612C64.0861 5.612 60.9241 8.774 60.9241 14.146C60.9241 19.518 64.0181 22.442 69.0501 22.442C73.4361 22.442 75.6801 20.198 76.3261 16.492L72.9601 15.676C72.4841 17.614 71.6001 19.212 69.0161 19.212C66.1601 19.212 64.6641 17.24 64.6641 14.01C64.6641 10.508 66.2961 8.842 68.9141 8.842C71.4301 8.842 72.3821 10.202 72.8581 12.242Z" fill="#1E0500"/>
<path d="M84.6117 19.484C82.5377 19.484 81.8237 18.498 81.8237 17.342C81.8237 16.016 82.8777 15.336 84.7137 15.336H88.8617V15.982C88.8617 17.988 87.1617 19.484 84.6117 19.484ZM89.0317 22H92.4997V11.8C92.4997 7.822 90.5277 5.646 85.9037 5.646C81.8237 5.646 79.5457 7.584 78.9337 10.61L82.4017 11.392C82.8097 9.522 83.8977 8.57 85.7677 8.57C88.0117 8.57 88.8617 9.76 88.8617 11.834V12.922H84.1017C80.0557 12.922 78.3217 14.996 78.3217 17.852C78.3217 20.98 80.3277 22.34 83.1837 22.34C86.0057 22.34 87.8417 20.776 88.6577 18.192H89.0317V22Z" fill="#1E0500"/>
<path d="M99.9813 0.171997H96.3093V22H99.9813V0.171997Z" fill="#1E0500"/>
<path d="M119.227 22.442C124.633 22.442 127.897 19.45 128.577 14.52L124.905 13.84C124.225 17.24 122.661 19.076 119.227 19.076C115.113 19.076 113.277 16.254 113.277 11.766C113.277 7.584 115.113 4.558 119.261 4.558C122.491 4.558 124.191 6.36 124.803 9.658L128.509 8.944C127.795 4.048 124.599 1.158 119.329 1.158C113.209 1.158 109.401 5.17 109.401 11.766C109.401 18.362 112.971 22.442 119.227 22.442Z" fill="#1E0500"/>
<path d="M138.71 22.442C143.776 22.442 146.768 19.212 146.768 13.976C146.768 8.706 143.606 5.612 138.71 5.612C133.746 5.612 130.584 8.706 130.584 13.976C130.584 19.212 133.576 22.442 138.71 22.442ZM138.676 8.706C141.634 8.706 143.13 10.644 143.13 13.942C143.13 17.24 141.702 19.28 138.676 19.28C135.616 19.28 134.256 17.24 134.256 13.942C134.256 10.644 135.718 8.706 138.676 8.706Z" fill="#1E0500"/>
<path d="M153.302 12.956C153.302 10.542 154.934 8.91 157.382 8.91C159.592 8.91 160.442 10.338 160.442 12.276V22H164.08V11.324C164.08 7.856 162.482 5.612 159.15 5.612C156.464 5.612 154.424 7.278 153.54 10.236H153.234V6.02H149.664V22H153.302V12.956Z" fill="#1E0500"/>
<path d="M168.645 17.138C168.645 20.13 170.141 22.442 173.643 22.442C175.241 22.442 176.057 22.238 177.247 21.864L176.805 18.6C176.023 18.838 175.309 19.008 174.493 19.008C172.895 19.008 172.317 18.192 172.317 16.628V8.978H177.009V6.02H172.317V1.702H168.645V6.02H166.401V8.978H168.645V17.138Z" fill="#1E0500"/>
<path d="M186.884 8.434C189.434 8.434 190.658 9.862 190.794 12.616H182.6C182.94 9.76 184.402 8.434 186.884 8.434ZM186.986 22.408C191.27 22.408 193.276 20.436 194.024 17.546L190.896 16.662C190.454 18.192 189.57 19.416 187.02 19.416C184.3 19.416 182.838 17.954 182.566 15.064H194.092C194.16 14.248 194.16 13.534 194.16 12.922C194.16 8.536 191.814 5.612 186.986 5.612C181.988 5.612 178.928 8.808 178.928 14.214C178.928 19.552 182.09 22.408 186.986 22.408Z" fill="#1E0500"/>
<path d="M200.75 12.956C200.75 10.542 202.382 8.91 204.83 8.91C207.04 8.91 207.89 10.338 207.89 12.276V22H211.528V11.324C211.528 7.856 209.93 5.612 206.598 5.612C203.912 5.612 201.872 7.278 200.988 10.236H200.682V6.02H197.112V22H200.75V12.956Z" fill="#1E0500"/>
<path d="M216.092 17.138C216.092 20.13 217.588 22.442 221.09 22.442C222.688 22.442 223.504 22.238 224.694 21.864L224.252 18.6C223.47 18.838 222.756 19.008 221.94 19.008C220.342 19.008 219.764 18.192 219.764 16.628V8.978H224.456V6.02H219.764V1.702H216.092V6.02H213.848V8.978H216.092V17.138Z" fill="#1E0500"/>
<path d="M233.617 22.442C238.207 22.442 240.179 20.538 240.179 17.58C240.179 15.064 238.751 13.466 234.025 12.582C230.999 12.038 230.319 11.256 230.319 10.134C230.319 8.944 231.271 8.23 233.141 8.23C235.045 8.23 235.997 8.978 236.439 10.95L239.737 10.236C239.091 7.414 237.595 5.612 233.209 5.612C228.959 5.612 226.851 7.448 226.851 10.338C226.851 12.99 228.347 14.418 232.597 15.268C235.759 15.846 236.643 16.458 236.643 17.716C236.643 19.076 235.623 19.756 233.685 19.756C231.101 19.756 229.979 18.532 229.469 16.594L226.171 17.274C226.749 20.334 228.449 22.442 233.617 22.442Z" fill="#1E0500"/>
</svg>
