<svg width="36" height="36" viewBox="0 0 36 36" fill="none" xmlns="http://www.w3.org/2000/svg">
<path fill-rule="evenodd" clip-rule="evenodd" d="M27.4275 16.2857H8.57031V13.7857H27.4275V16.2857Z" fill="#16C734"/>
<path fill-rule="evenodd" clip-rule="evenodd" d="M18 33.5C26.5604 33.5 33.5 26.5604 33.5 18C33.5 9.43959 26.5604 2.5 18 2.5C9.43959 2.5 2.5 9.43959 2.5 18C2.5 26.5604 9.43959 33.5 18 33.5ZM18 36C27.9411 36 36 27.9411 36 18C36 8.05887 27.9411 0 18 0C8.05887 0 0 8.05887 0 18C0 27.9411 8.05887 36 18 36Z" fill="#16C734"/>
<path fill-rule="evenodd" clip-rule="evenodd" d="M18 27.5C23.2467 27.5 27.5 23.2467 27.5 18C27.5 12.7533 23.2467 8.5 18 8.5C12.7533 8.5 8.5 12.7533 8.5 18C8.5 23.2467 12.7533 27.5 18 27.5ZM18 30C24.6274 30 30 24.6274 30 18C30 11.3726 24.6274 6 18 6C11.3726 6 6 11.3726 6 18C6 24.6274 11.3726 30 18 30Z" fill="#16C734"/>
</svg>
